<svg xmlns="http://www.w3.org/2000/svg" viewBox="0 0 32 32"><path fill="black" fill-rule="evenodd" d="M25 18a3 3 0 1 1 0-6 3 3 0 0 1 0 6Zm2 7h-4a1 1 0 1 1 0-2h4a1 1 0 1 1 0 2Zm0 3h-4a1 1 0 1 1 0-2h4a1 1 0 1 1 0 2Zm-7-2a2 2 0 0 1-2 2H6a2 2 0 0 1-2-2V14c0-1.1.9-2 2-2h12a2 2 0 0 1 2 2v12Zm8-18h-9.3l8.8-6c.5-.4.6-1 .3-1.5a1 1 0 0 0-1.4-.3L16 7.3 5.6.2a1 1 0 0 0-1.4.3C3.9 1 4 1.6 4.5 2l8.8 6H4a4 4 0 0 0-4 4v16a4 4 0 0 0 4 4h24a4 4 0 0 0 4-4V12a4 4 0 0 0-4-4Zm-4 8h2v-2h-2v2Zm-7-2H7a1 1 0 0 0-1 1v10c0 .6.4 1 1 1h10c.6 0 1-.4 1-1V15c0-.6-.4-1-1-1Z"/>
    <style>
        path { fill: black; }
        @media (prefers-color-scheme: dark) {
            path { fill: white; }
        }
    </style>
</svg>